<?xml version="1.0" encoding="UTF-8" standalone="no" ?>
<!DOCTYPE svg PUBLIC "-//W3C//DTD SVG 1.1//EN" "http://www.w3.org/Graphics/SVG/1.1/DTD/svg11.dtd">
<svg xmlns="http://www.w3.org/2000/svg" xmlns:xlink="http://www.w3.org/1999/xlink" version="1.1" width="1280" height="1024" viewBox="0 0 1280 1024" xml:space="preserve">
<desc>Created with Fabric.js 5.3.0</desc>
<defs>
</defs>
<g transform="matrix(1 0 0 1 640 512)" id="background-logo"  >
<rect style="stroke: none; stroke-width: 0; stroke-dasharray: none; stroke-linecap: butt; stroke-dashoffset: 0; stroke-linejoin: miter; stroke-miterlimit: 4; fill: rgb(255,255,255); fill-opacity: 0; fill-rule: nonzero; opacity: 1;"  paint-order="stroke"  x="-640" y="-512" rx="0" ry="0" width="1280" height="1024" />
</g>
<g transform="matrix(1.9211538461538462 0 0 1.9211538461538462 627.2939687500001 672.8380039999123)" id="text-logo"  >
<g style=""  paint-order="stroke"   >
		<g transform="matrix(1 0 0 1 0 0)" id="text-logo-path-0"  >
<linearGradient id="SVGID_99089" gradientUnits="userSpaceOnUse" gradientTransform="matrix(1 0 0 1 1.3000000000000114 -47.52)"  x1="-1.1862480163574673" y1="-9.62910000000005" x2="-1.1862480163574673" y2="63.37089999999995">
<stop offset="0%" style="stop-color:rgb(91,36,122);stop-opacity: 1"/>
<stop offset="100%" style="stop-color:rgb(27,206,223);stop-opacity: 1"/>
</linearGradient>
<path style="stroke: none; stroke-width: 0; stroke-dasharray: none; stroke-linecap: butt; stroke-dashoffset: 0; stroke-linejoin: miter; stroke-miterlimit: 4; fill: url(#SVGID_99089); fill-rule: nonzero; opacity: 1;"  paint-order="stroke"  transform=" translate(-144.755, 23.435000000000002)" d="M 1.3 -0.65 L 1.3 0 L 13.78 0 L 13.78 -0.65 C 11.44 -0.65 8.84 -1.1 8.84 -3.58 L 8.84 -36.2 L 22.49 0 L 25.09 0 L 39.39 -37.96 L 39.39 -3.58 C 39.39 -1.1 36.79 -0.65 34.45 -0.65 L 34.45 0 L 53.43 0 L 53.43 -0.65 C 51.09 -0.65 48.49 -1.1 48.49 -3.58 L 48.49 -41.27 C 48.49 -43.75 51.09 -44.2 53.43 -44.2 L 53.43 -44.85 L 39.39 -44.85 L 27.37 -13 L 15.34 -44.85 L 1.3 -44.85 L 1.3 -44.2 C 3.64 -44.2 6.24 -43.75 6.24 -41.27 L 6.24 -3.58 C 6.24 -1.1 3.64 -0.65 1.3 -0.65 Z M 97.31 -3.38 L 80.99 -47.52 L 77.55 -47.52 C 76.38 -44.79 74.88 -42.7 73.25 -42.05 L 73.84 -40.43 L 67.41 -22.82 L 65.33 -22.82 C 65.91 -22.43 66.43 -21.97 66.89 -21.52 L 60.26 -3.38 C 59.41 -1.04 56.42 -0.65 54.08 -0.65 L 54.08 0 L 65.06 0 L 65.06 -0.65 C 63.44 -0.65 62.01 -1.04 62.86 -3.38 L 68.7 -19.5 C 69.81 -18 70.53 -16.51 70.78 -15.21 C 71.95 -15.93 74.94 -16.05 76.38 -16.05 C 79.56 -16.05 81.06 -14.69 83 -12.22 L 85.41 -9.29 L 87.56 -3.45 C 88.4 -1.1 86.19 -0.72 83.85 -0.78 L 83.85 -0.13 L 101.98 0 L 101.98 -0.65 C 100.36 -0.65 98.15 -1.04 97.31 -3.38 Z M 72.93 -22.82 L 69.88 -22.82 L 75.08 -37.12 L 83.72 -13.91 L 79.56 -18.98 C 77.61 -21.45 76.12 -22.82 72.93 -22.82 Z M 103.93 -0.65 L 103.93 0 L 122.91 0 L 122.91 -0.65 C 120.57 -0.65 117.97 -1.1 117.97 -3.58 L 117.97 -18.66 L 118.04 -18.72 C 119.99 -21.19 122.78 -22.55 125.97 -22.55 C 127.4 -22.55 131.69 -22.43 132.86 -21.71 C 133.12 -22.95 133.83 -24.44 134.88 -25.87 L 134.88 -3.58 C 134.88 -1.1 132.27 -0.65 129.94 -0.65 L 129.94 0 L 148.91 0 L 148.91 -0.65 C 146.57 -0.65 143.97 -1.1 143.97 -3.58 L 143.97 -42.25 C 143.97 -44.01 143.97 -45.5 144.63 -47.45 C 142.16 -45.76 138.13 -44.91 135.07 -44.85 L 129.94 -44.85 L 129.94 -44.2 C 132.27 -44.2 134.88 -43.75 134.88 -41.27 L 134.88 -29.32 L 129.41 -29.32 C 126.23 -29.32 123.43 -27.95 121.48 -25.48 L 117.97 -21.13 L 117.97 -42.25 C 117.97 -44.01 117.97 -45.5 118.62 -47.45 C 116.15 -45.76 112.12 -44.91 109.07 -44.85 L 103.93 -44.85 L 103.93 -44.2 C 106.27 -44.2 108.87 -43.75 108.87 -41.27 L 108.87 -3.58 C 108.87 -1.1 106.27 -0.65 103.93 -0.65 Z M 152.16 -0.65 L 152.16 0 L 171.14 0 L 171.14 -0.65 C 168.8 -0.65 166.2 -1.1 166.2 -3.58 L 166.2 -18.66 L 166.27 -18.72 C 168.22 -21.19 171.01 -22.55 174.2 -22.55 C 175.63 -22.55 179.92 -22.43 181.09 -21.71 C 181.35 -22.95 182.06 -24.44 183.1 -25.87 L 183.1 -3.58 C 183.1 -1.1 180.5 -0.65 178.16 -0.65 L 178.16 0 L 197.14 0 L 197.14 -0.65 C 194.8 -0.65 192.2 -1.1 192.2 -3.58 L 192.2 -42.25 C 192.2 -44.01 192.2 -45.5 192.85 -47.45 C 190.38 -45.76 186.35 -44.91 183.3 -44.85 L 178.16 -44.85 L 178.16 -44.2 C 180.5 -44.2 183.1 -43.75 183.1 -41.27 L 183.1 -29.32 L 177.64 -29.32 C 174.46 -29.32 171.66 -27.95 169.71 -25.48 L 166.2 -21.13 L 166.2 -42.25 C 166.2 -44.01 166.2 -45.5 166.85 -47.45 C 164.38 -45.76 160.35 -44.91 157.3 -44.85 L 152.16 -44.85 L 152.16 -44.2 C 154.5 -44.2 157.1 -43.75 157.1 -41.27 L 157.1 -3.58 C 157.1 -1.1 154.5 -0.65 152.16 -0.65 Z M 241.02 -3.38 L 224.71 -47.52 L 221.26 -47.52 C 220.09 -44.79 218.59 -42.7 216.97 -42.05 L 217.56 -40.43 L 211.12 -22.82 L 209.04 -22.82 C 209.63 -22.43 210.15 -21.97 210.6 -21.52 L 203.97 -3.38 C 203.13 -1.04 200.13 -0.65 197.8 -0.65 L 197.8 0 L 208.78 0 L 208.78 -0.65 C 207.16 -0.65 205.72 -1.04 206.57 -3.38 L 212.42 -19.5 C 213.53 -18 214.24 -16.51 214.5 -15.21 C 215.67 -15.93 218.66 -16.05 220.09 -16.05 C 223.28 -16.05 224.77 -14.69 226.72 -12.22 L 229.13 -9.29 L 231.27 -3.45 C 232.12 -1.1 229.91 -0.72 227.56 -0.78 L 227.56 -0.13 L 245.7 0 L 245.7 -0.65 C 244.07 -0.65 241.87 -1.04 241.02 -3.38 Z M 216.65 -22.82 L 213.59 -22.82 L 218.79 -37.12 L 227.44 -13.91 L 223.28 -18.98 C 221.33 -21.45 219.83 -22.82 216.65 -22.82 Z M 284.44 -33.61 C 284.44 -40.95 276.83 -44.85 268.84 -44.85 L 247.65 -44.85 L 247.65 -44.2 C 249.99 -44.2 252.59 -43.75 252.59 -41.27 L 252.59 -3.58 C 252.59 -1.1 249.99 -0.65 247.65 -0.58 L 247.65 0.07 L 252.78 0 C 255.58 -0.07 257.92 -1.43 259.42 -3.64 C 262.67 -1.17 266.44 0.65 270.79 0.65 C 278.65 0.65 288.21 -1.82 288.21 -12.09 C 288.21 -18.27 283.14 -22.55 276.51 -23.73 C 280.87 -26.07 284.44 -28.99 284.44 -33.61 Z M 260.45 -5.79 C 260.84 -6.89 261.04 -8.06 261.04 -9.29 L 261.04 -14.24 C 262.53 -16.64 265.59 -18.39 268.97 -20.09 C 269.75 -20.21 270.53 -20.28 271.44 -20.28 C 275.99 -20.28 279.11 -15.99 279.11 -12.22 C 279.11 -5.07 273.78 -2.86 268.84 -2.86 C 265.65 -2.86 263.12 -3.77 260.45 -5.79 Z M 261.04 -18.2 L 261.04 -40.23 C 263.06 -41.8 264.94 -42.25 266.95 -42.25 C 271.89 -42.25 275.4 -37.83 275.4 -33.61 C 275.4 -24.57 265.92 -22.62 261.04 -18.2 Z" stroke-linecap="round" />
</g>
</g>
</g>
<g transform="matrix(1.9211538461538462 0 0 1.9211538461538462 640 397.86773137557446)" id="logo-logo"  >
<g style=""  paint-order="stroke"   >
		<g transform="matrix(0.7312396076924077 0 0 0.7312396076924077 0 0)"  >
<g style=""  paint-order="stroke"   >
		<g transform="matrix(1 0 0 1 0 0)"  >
<linearGradient id="SVGID_99087" gradientUnits="userSpaceOnUse" gradientTransform="matrix(1 0 0 1 0 0)"  x1="0" y1="0" x2="0" y2="200">
<stop offset="0%" style="stop-color:rgb(23,234,217);stop-opacity: 1"/>
<stop offset="100%" style="stop-color:rgb(96,120,234);stop-opacity: 1"/>
</linearGradient>
<path style="stroke: none; stroke-width: 1; stroke-dasharray: none; stroke-linecap: butt; stroke-dashoffset: 0; stroke-linejoin: miter; stroke-miterlimit: 4; fill: url(#SVGID_99087); fill-rule: nonzero; opacity: 1;"  paint-order="stroke"  transform=" translate(-100, -100)" d="M 200 100 C 200 155.22847498307934 155.22847498307934 200 100 200 C 44.771525016920656 200 0 155.22847498307934 0 100 C 0 44.771525016920656 44.771525016920656 0 100 0 C 155.22847498307934 0 200 44.77152501692063 200 99.99999999999997 Z" stroke-linecap="round" />
</g>
</g>
</g>
		<g transform="matrix(0.14421049421565335 0 0 -0.14421049421565335 0 0)"  >
<linearGradient id="SVGID_99088" gradientUnits="userSpaceOnUse" gradientTransform="matrix(1 0 0 1 11267.325 667.9609999999999)"  x1="0" y1="0" x2="0" y2="1270">
<stop offset="0%" style="stop-color:rgb(91,36,122);stop-opacity: 1"/>
<stop offset="100%" style="stop-color:rgb(27,206,223);stop-opacity: 1"/>
</linearGradient>
<path style="stroke: none; stroke-width: 1; stroke-dasharray: none; stroke-linecap: butt; stroke-dashoffset: 0; stroke-linejoin: miter; stroke-miterlimit: 4; fill: url(#SVGID_99088); fill-rule: nonzero; opacity: 1;"  paint-order="stroke"  transform=" translate(-11977.3125, -1303.0555)" d="M 12666.9 1378.59 L 12387.6 1862.7199999999998 C 12360.6 1909.4299999999998 12310.6 1938.1499999999999 12256.7 1938.1499999999999 L 11697.800000000001 1938.1499999999999 C 11643.800000000001 1938.1499999999999 11593.800000000001 1909.4299999999998 11566.900000000001 1862.7199999999998 L 11287.500000000002 1378.5899999999997 C 11260.600000000002 1331.8899999999996 11260.600000000002 1274.2199999999998 11287.500000000002 1227.5199999999998 L 11566.900000000001 743.6049999999998 C 11593.800000000001 696.6839999999997 11643.800000000001 667.9609999999998 11697.800000000001 667.9609999999998 L 12256.7 667.9609999999998 C 12310.6 667.9609999999998 12360.6 696.6839999999997 12387.6 743.6049999999998 L 12666.9 1227.5199999999998 C 12694.1 1274.2199999999998 12694.1 1331.8899999999999 12666.9 1378.5899999999997 z M 11977.3 1700.4699999999998 C 12089.8 1700.4699999999998 12181 1609.2499999999998 12181 1496.7699999999998 C 12181 1384.2899999999997 12089.8 1293.0799999999997 11977.3 1293.0799999999997 C 11864.9 1293.0799999999997 11773.4 1384.2899999999997 11773.4 1496.7699999999998 C 11773.4 1609.2499999999998 11864.9 1700.4699999999998 11977.3 1700.4699999999998 z M 11977.3 870.7769999999998 C 11738.599999999999 870.7769999999998 11544.9 1064.3899999999999 11544.9 1303.1599999999999 C 11544.9 1421.35 11592.5 1528.35 11669.5 1606.1799999999998 C 11604.8 1207.9999999999998 11962.6 912.2189999999998 12358.4 1099.4699999999998 C 12285.8 963.3089999999997 12142.199999999999 870.7769999999998 11977.3 870.7769999999998 z M 11931.5 1202.5199999999998 C 12143.3 1098.5899999999997 12438.7 1424.4199999999998 12275.1 1615.8299999999997 C 12358 1537.3399999999997 12409.5 1426.1699999999996 12409.5 1303.1599999999996 C 12409.5 1120.2999999999997 12076 1005.1899999999996 11931.5 1202.5199999999995" stroke-linecap="round" />
</g>
</g>
</g>
<g transform="matrix(1.9211538461538462 0 0 1.9211538461538462 639.9077846153848 784.6563813845277)" id="tagline-32c9e162-0600-4ae9-ad29-0823e9772e3d-logo"  >
<g style=""  paint-order="stroke"   >
		<g transform="matrix(1 0 0 1 0 0)" id="tagline-32c9e162-0600-4ae9-ad29-0823e9772e3d-logo-path-0"  >
<linearGradient id="SVGID_99090" gradientUnits="userSpaceOnUse" gradientTransform="matrix(1 0 0 1 0.47999999999998977 -18)"  x1="-0.4320011901855594" y1="-3.09935999999999" x2="-0.4320011901855594" y2="23.90064000000001">
<stop offset="0%" style="stop-color:rgb(91,36,122);stop-opacity: 1"/>
<stop offset="100%" style="stop-color:rgb(27,206,223);stop-opacity: 1"/>
</linearGradient>
<path style="stroke: none; stroke-width: 0; stroke-dasharray: none; stroke-linecap: butt; stroke-dashoffset: 0; stroke-linejoin: miter; stroke-miterlimit: 4; fill: url(#SVGID_99090); fill-rule: nonzero; opacity: 1;"  paint-order="stroke"  transform=" translate(-227.08999999999997, 6.025)" d="M 0.48 -0.24 L 0.48 0 L 7.73 0 L 7.73 -0.24 C 6.86 -0.24 5.9 -0.41 5.9 -1.32 L 5.9 -7.2 C 6.6 -7.92 7.54 -8.33 8.59 -8.33 C 9.12 -8.33 9.74 -8.28 10.18 -8.02 C 10.37 -8.86 11.04 -9.98 12.19 -10.82 L 9.86 -10.82 C 8.69 -10.82 7.66 -10.32 6.94 -9.41 L 5.9 -8.14 L 5.9 -15.72 L 6.7 -15.72 C 10.01 -15.72 10.18 -13.56 12.72 -13.56 C 12.67 -14.64 13.1 -15.48 14.02 -16.56 L 0.48 -16.56 L 0.48 -16.32 C 1.34 -16.32 2.3 -16.15 2.3 -15.24 L 2.3 -1.32 C 2.3 -0.41 1.34 -0.24 0.48 -0.24 Z M 21.5 -0.24 L 21.5 0 L 26.11 0 L 26.11 -0.24 C 25.25 -0.24 24.29 -0.41 24.29 -1.32 L 24.29 -13.37 L 29.33 0 L 30.29 0 L 35.57 -14.02 L 35.57 -1.32 C 35.57 -0.41 34.61 -0.24 33.74 -0.24 L 33.74 0 L 40.75 0 L 40.75 -0.24 C 39.89 -0.24 38.93 -0.41 38.93 -1.32 L 38.93 -15.24 C 38.93 -16.15 39.89 -16.32 40.75 -16.32 L 40.75 -16.56 L 35.57 -16.56 L 31.13 -4.8 L 26.69 -16.56 L 21.5 -16.56 L 21.5 -16.32 C 22.37 -16.32 23.33 -16.15 23.33 -15.24 L 23.33 -1.32 C 23.33 -0.41 22.37 -0.24 21.5 -0.24 Z M 64.63 0.24 C 66.43 0.24 66.98 -0.74 68.64 -0.67 C 69.17 -0.22 69.89 0 70.8 0 L 72.86 0 L 72.86 -0.24 C 72 -0.24 71.04 -0.41 71.04 -1.32 L 71.04 -6.72 C 71.04 -7.37 71.04 -7.92 71.28 -8.64 C 70.37 -8.02 68.88 -7.7 67.75 -7.68 L 65.86 -7.68 L 65.86 -7.44 C 66.72 -7.44 67.68 -7.27 67.68 -6.36 L 67.68 -3.12 C 67.68 -2.95 67.68 -2.78 67.7 -2.64 C 66.79 -1.8 66.07 -0.86 65.23 -0.86 C 63.7 -0.86 62.35 -2.98 62.35 -5.86 C 62.35 -8.69 63.19 -9.72 64.92 -9.72 L 65.3 -10.97 C 64.99 -10.97 64.68 -10.94 64.39 -10.92 C 63.12 -11.18 62.81 -12.38 62.81 -13.34 C 62.81 -14.74 63.17 -15.72 64.46 -15.72 L 64.8 -15.72 C 66.46 -15.72 66.29 -13.56 68.35 -13.56 C 68.3 -14.64 68.74 -15.48 69.65 -16.56 L 64.46 -16.56 C 61.85 -16.56 59.69 -15.24 59.69 -13.34 C 59.69 -11.64 60.67 -10.82 63 -10.63 C 60.46 -9.84 59.11 -7.7 59.11 -5.42 C 59.11 -1.39 61.97 0.24 64.63 0.24 Z M 97.32 -15.6 C 94.94 -15.6 93.55 -12.36 93.55 -8.47 C 93.55 -4.51 95.64 -0.82 97.75 -0.82 C 99.82 -0.82 100.85 -3.77 104.33 -3.77 C 104.26 -2.28 102.5 -1.49 103.75 0 C 99.91 -1.1 99.96 0.24 96.91 0.24 C 93.26 0.24 90 -2.33 90 -7.87 C 90 -11.86 92.33 -16.8 97.85 -16.8 C 100.49 -16.8 101.02 -15.89 103.75 -16.61 C 102.74 -15.41 101.81 -14.3 101.86 -13.15 C 99.91 -13.25 99.74 -15.6 97.32 -15.6 Z M 117.5 0.24 C 120.98 0.24 123.53 -2.16 123.58 -5.98 C 123.62 -9.58 121.37 -12.17 117.65 -12.17 C 114.17 -12.17 111.62 -9.77 111.6 -5.98 C 111.53 -2.35 113.78 0.24 117.5 0.24 Z M 114.96 -5.98 C 114.62 -8.88 115.42 -10.94 117.07 -10.94 C 118.61 -10.94 119.88 -9.1 120.22 -5.98 C 120.53 -3.05 119.74 -0.98 118.08 -0.98 C 116.54 -0.98 115.25 -2.86 114.96 -5.98 Z M 130.85 -0.24 L 130.85 0 L 137.62 0 L 137.62 -0.24 C 136.75 -0.24 135.79 -0.41 135.79 -1.32 L 135.79 -5.23 C 135.79 -7.13 136.73 -10.08 138.6 -10.08 C 139.61 -10.08 141.31 -9.53 141.31 -6.19 L 141.31 -2.88 C 141.31 -0.65 143.11 0.24 145.03 0.24 C 146.18 0.24 146.81 -0.07 147.26 -0.72 C 147.1 -0.74 146.9 -0.89 146.74 -1.1 C 146.69 -0.62 146.28 -0.24 145.75 -0.24 C 144.74 -0.24 144.67 -1.92 144.67 -2.86 L 144.67 -6.89 C 144.67 -10.56 142.44 -12.26 140.54 -12.26 C 137.83 -12.26 136.42 -10.08 135.79 -8.04 L 135.79 -10.32 C 135.79 -10.97 135.79 -11.52 136.03 -12.24 C 135.12 -11.62 133.85 -11.3 132.74 -11.28 L 130.85 -11.28 L 130.85 -11.04 C 131.71 -11.04 132.67 -10.87 132.67 -9.96 L 132.67 -1.32 C 132.67 -0.41 131.71 -0.24 130.85 -0.24 Z M 158.33 -11.09 C 159.91 -11.09 160.8 -8.88 162.38 -8.78 C 162.34 -9.86 162.72 -10.92 163.54 -12 C 159.84 -10.9 160.58 -12.19 158.02 -12.19 C 156.12 -12.19 153.84 -11.04 153.84 -8.78 C 153.84 -5.28 160.56 -5.02 160.56 -2.45 C 160.56 -1.27 159.31 -0.91 158.54 -0.91 C 156.96 -0.91 156.05 -3.12 154.46 -3.22 C 154.51 -2.14 154.13 -1.08 153.31 0 C 157.01 -1.1 156.26 0.19 158.83 0.19 C 161.02 0.19 163.42 -1.01 163.42 -3.29 C 163.42 -6.46 156.67 -8.04 156.67 -9.7 C 156.67 -10.68 157.46 -11.09 158.33 -11.09 Z M 181.25 -9.96 L 181.25 -5.59 C 181.03 -3.86 179.95 -1.94 178.44 -1.94 C 177.43 -1.94 175.97 -2.5 175.97 -5.83 L 175.97 -10.32 C 175.97 -10.97 175.97 -11.52 176.21 -12.24 C 175.3 -11.62 173.81 -11.3 172.68 -11.28 L 170.78 -11.28 L 170.78 -11.04 C 171.65 -11.04 172.61 -10.87 172.61 -9.96 L 172.61 -5.14 C 172.61 -1.46 174.6 0.24 176.5 0.24 C 178.8 0.24 180.46 -1.8 181.25 -3.62 L 181.25 -2.88 C 181.25 -0.65 183.05 0.24 184.97 0.24 C 186.12 0.24 186.74 -0.07 187.2 -0.72 C 187.03 -0.74 186.84 -0.89 186.67 -1.1 C 186.62 -0.62 186.22 -0.24 185.69 -0.24 C 184.68 -0.24 184.61 -1.92 184.61 -2.86 L 184.61 -10.32 C 184.61 -10.97 184.61 -11.52 184.85 -12.24 C 183.94 -11.62 182.45 -11.3 181.32 -11.28 L 179.42 -11.28 L 179.42 -11.04 C 180.29 -11.04 181.25 -10.87 181.25 -9.96 Z M 195.07 -15.72 L 195.07 -2.88 C 195.07 -0.65 196.87 0.24 198.79 0.24 C 199.94 0.24 200.57 -0.07 201.02 -0.72 C 200.86 -0.74 200.66 -0.89 200.5 -1.1 C 200.45 -0.62 200.04 -0.24 199.51 -0.24 C 198.5 -0.24 198.43 -1.92 198.43 -2.86 L 198.43 -16.08 C 198.43 -16.73 198.43 -17.28 198.67 -18 C 197.76 -17.38 196.27 -17.06 195.14 -17.04 L 193.25 -17.04 L 193.25 -16.8 C 194.11 -16.8 195.07 -16.63 195.07 -15.72 Z M 208.66 -13.32 L 208.66 -2.86 C 208.66 -0.62 210.46 0.26 212.38 0.26 C 213.53 0.26 214.15 -0.05 214.61 -0.7 C 214.44 -0.72 214.25 -0.86 214.08 -1.08 C 214.03 -0.6 213.62 -0.22 213.1 -0.22 C 212.09 -0.22 212.02 -1.9 212.02 -2.83 L 212.02 -9.5 C 212.23 -9.58 212.47 -9.62 212.74 -9.62 C 213.02 -9.62 213.38 -9.6 213.62 -9.46 C 213.74 -9.91 214.13 -11.28 214.78 -11.76 L 213.46 -11.76 C 212.9 -11.76 212.4 -11.57 212.02 -11.21 L 212.02 -13.68 C 212.02 -14.33 212.02 -14.88 212.26 -15.6 C 211.34 -14.98 209.86 -14.66 208.73 -14.64 L 206.83 -14.64 L 206.83 -14.4 C 207.7 -14.4 208.66 -14.23 208.66 -13.32 Z M 229.37 -8.54 L 229.37 -2.88 C 229.37 -2.66 229.39 -2.45 229.42 -2.23 C 228.89 -1.58 228.29 -1.06 227.23 -1.06 C 226.06 -1.06 225.36 -2.3 225.36 -3.36 C 225.36 -6.58 228.12 -8.21 229.25 -9.79 C 229.34 -9.41 229.37 -8.98 229.37 -8.54 Z M 222.02 -3.07 C 222.02 -1.7 222.98 0.24 226.1 0.24 C 227.57 0.24 228.43 -0.38 229.61 -1.54 C 230.11 -0.41 231.86 0.24 233.09 0.24 C 234.24 0.24 234.86 -0.07 235.32 -0.72 C 235.15 -0.74 234.96 -0.89 234.79 -1.1 C 234.74 -0.62 234.34 -0.24 233.81 -0.24 C 232.8 -0.24 232.73 -1.92 232.73 -2.86 L 232.73 -7.92 C 232.73 -10.13 231.07 -12.19 228.26 -12.19 C 225.38 -12.19 226.22 -10.9 222.07 -12 C 222.98 -10.92 223.42 -9.86 223.37 -8.78 C 225.14 -8.88 226.15 -11.09 227.66 -11.09 C 228.26 -11.09 228.65 -10.9 228.91 -10.58 C 228.05 -8.11 222.02 -6.12 222.02 -3.07 Z M 241.37 -0.24 L 241.37 0 L 248.14 0 L 248.14 -0.24 C 247.27 -0.24 246.31 -0.41 246.31 -1.32 L 246.31 -5.23 C 246.31 -7.13 247.25 -10.08 249.12 -10.08 C 250.13 -10.08 251.83 -9.53 251.83 -6.19 L 251.83 -2.88 C 251.83 -0.65 253.63 0.24 255.55 0.24 C 256.7 0.24 257.33 -0.07 257.78 -0.72 C 257.62 -0.74 257.42 -0.89 257.26 -1.1 C 257.21 -0.62 256.8 -0.24 256.27 -0.24 C 255.26 -0.24 255.19 -1.92 255.19 -2.86 L 255.19 -6.89 C 255.19 -10.56 252.96 -12.26 251.06 -12.26 C 248.35 -12.26 246.94 -10.08 246.31 -8.04 L 246.31 -10.32 C 246.31 -10.97 246.31 -11.52 246.55 -12.24 C 245.64 -11.62 244.37 -11.3 243.26 -11.28 L 241.37 -11.28 L 241.37 -11.04 C 242.23 -11.04 243.19 -10.87 243.19 -9.96 L 243.19 -1.32 C 243.19 -0.41 242.23 -0.24 241.37 -0.24 Z M 269.64 -10.92 C 267.91 -10.92 267.07 -8.93 267.07 -6.1 C 267.07 -3.22 268.42 -0.86 269.95 -0.86 C 271.46 -0.86 272.57 -3.89 275.09 -3.89 C 275.04 -2.81 273.77 -1.51 274.68 -0.43 C 271.87 -1.22 271.56 0.24 269.35 0.24 C 266.69 0.24 263.83 -1.63 263.83 -5.66 C 263.83 -8.57 266.02 -12.17 270.02 -12.17 C 271.94 -12.17 272.33 -11.5 274.32 -12.02 C 273.6 -11.16 272.9 -10.01 272.95 -9.17 C 271.54 -9.24 271.42 -10.92 269.64 -10.92 Z M 284.18 -10.37 L 289.1 0 C 289.27 -0.07 289.46 -0.1 289.66 -0.1 L 289.42 0.36 C 288.46 1.94 286.68 2.45 283.82 2.45 C 284.06 3.62 284.06 4.78 283.82 5.95 C 286.75 5.95 288.19 4.34 289.56 1.68 L 297.29 -12.89 C 295.7 -12.1 294.05 -11.52 292.2 -11.45 C 293.14 -10.49 293.81 -8.3 293.16 -6.89 L 291.22 -3.12 L 287.64 -10.61 C 287.35 -11.26 287.09 -11.81 286.99 -12.53 C 286.34 -11.88 284.78 -11.57 283.66 -11.57 L 282.34 -11.57 L 282.34 -11.33 C 282.94 -11.33 283.78 -11.21 284.18 -10.37 Z M 321.86 -15.29 C 324 -15.29 324.72 -13.22 326.86 -13.08 C 326.81 -14.57 327.34 -15.05 328.42 -16.54 C 324.5 -15.34 324.94 -16.8 321.48 -16.8 C 318.91 -16.8 316.58 -15.22 316.58 -12.12 C 316.58 -7.32 324.89 -6.96 324.89 -3.43 C 324.89 -1.82 323.18 -1.32 322.18 -1.32 C 320.52 -1.32 319.32 -3.82 317.18 -3.96 C 317.23 -2.47 316.7 -1.56 315.62 -0.07 C 320.59 -1.58 319.58 0.19 322.56 0.19 C 325.49 0.19 328.25 -1.46 328.25 -4.58 C 328.25 -8.93 319.66 -10.68 319.66 -13.46 C 319.66 -14.74 320.71 -15.29 321.86 -15.29 Z M 340.3 -1.56 L 340.22 -1.34 L 339.55 -1.7 C 339.62 -1.92 339.7 -2.14 339.79 -2.33 C 339.94 -2.04 340.13 -1.78 340.3 -1.56 Z M 335.66 -5.66 C 335.66 -8.57 337.85 -12.17 341.86 -12.17 C 344.47 -12.17 346.9 -10.73 346.9 -8.57 C 346.9 -5.71 341.74 -5.33 340.3 -1.56 C 340.66 -1.13 341.09 -0.86 341.54 -0.86 C 343.06 -0.86 344.16 -3.89 346.68 -3.89 C 346.63 -2.81 345.36 -1.51 346.27 -0.43 C 343.46 -1.22 343.15 0.24 340.94 0.24 C 338.28 0.24 335.66 -1.63 335.66 -5.66 Z M 338.9 -6.1 C 338.9 -4.85 339.24 -3.38 339.79 -2.33 C 340.85 -4.56 343.54 -5.71 343.54 -8.52 C 343.54 -9.48 342.79 -10.92 341.47 -10.92 C 339.74 -10.92 338.9 -8.57 338.9 -6.1 Z M 354.14 -0.24 L 354.14 0 L 360.91 0 L 360.91 -0.24 C 360.05 -0.24 359.09 -0.41 359.09 -1.32 L 359.09 -8.28 C 359.81 -9.07 360.77 -9.5 361.85 -9.5 C 362.38 -9.5 363 -9.46 363.43 -9.19 C 363.62 -10.03 364.3 -11.16 365.45 -12 L 363.12 -12 C 361.94 -12 360.91 -11.5 360.19 -10.58 L 359.09 -9.22 L 359.09 -10.32 C 359.09 -10.97 359.09 -11.52 359.33 -12.24 C 358.42 -11.62 357.14 -11.3 356.04 -11.28 L 354.14 -11.28 L 354.14 -11.04 C 355.01 -11.04 355.97 -10.87 355.97 -9.96 L 355.97 -1.32 C 355.97 -0.41 355.01 -0.24 354.14 -0.24 Z M 373.56 -10.03 L 377.3 0 L 378.58 0 C 379.01 -1.01 379.56 -1.78 380.16 -2.02 L 379.94 -2.57 L 385.42 -12.89 C 383.83 -12.1 382.18 -11.52 380.33 -11.45 C 381.26 -10.49 381.94 -8.3 381.29 -6.89 L 379.58 -3.58 L 377.04 -10.32 C 376.82 -10.97 376.61 -11.52 376.58 -12.24 C 375.89 -11.59 374.28 -11.28 373.15 -11.28 L 371.83 -11.28 L 371.83 -11.04 C 372.43 -11.04 373.25 -10.9 373.56 -10.03 Z M 395.95 -12.62 C 397.15 -12.62 397.99 -13.39 397.99 -14.66 C 397.99 -15.86 397.22 -16.7 395.95 -16.7 C 394.75 -16.7 393.91 -15.94 393.91 -14.66 C 393.91 -13.46 394.68 -12.62 395.95 -12.62 Z M 394.56 -11.28 L 392.66 -11.28 L 392.66 -11.04 C 393.53 -11.04 394.49 -10.87 394.49 -9.96 L 394.49 -2.88 C 394.49 -0.65 396.29 0.24 398.21 0.24 C 399.36 0.24 399.98 -0.07 400.44 -0.72 C 400.27 -0.74 400.08 -0.89 399.91 -1.1 C 399.86 -0.62 399.46 -0.24 398.93 -0.24 C 397.92 -0.24 397.85 -1.92 397.85 -2.86 L 397.85 -10.32 C 397.85 -10.97 397.85 -11.52 398.09 -12.24 C 397.18 -11.62 395.69 -11.3 394.56 -11.28 Z M 412.3 -10.92 C 410.57 -10.92 409.73 -8.93 409.73 -6.1 C 409.73 -3.22 411.07 -0.86 412.61 -0.86 C 414.12 -0.86 415.22 -3.89 417.74 -3.89 C 417.7 -2.81 416.42 -1.51 417.34 -0.43 C 414.53 -1.22 414.22 0.24 412.01 0.24 C 409.34 0.24 406.49 -1.63 406.49 -5.66 C 406.49 -8.57 408.67 -12.17 412.68 -12.17 C 414.6 -12.17 414.98 -11.5 416.98 -12.02 C 416.26 -11.16 415.56 -10.01 415.61 -9.17 C 414.19 -9.24 414.07 -10.92 412.3 -10.92 Z M 429.62 -1.56 L 429.55 -1.34 L 428.88 -1.7 C 428.95 -1.92 429.02 -2.14 429.12 -2.33 C 429.26 -2.04 429.46 -1.78 429.62 -1.56 Z M 424.99 -5.66 C 424.99 -8.57 427.18 -12.17 431.18 -12.17 C 433.8 -12.17 436.22 -10.73 436.22 -8.57 C 436.22 -5.71 431.06 -5.33 429.62 -1.56 C 429.98 -1.13 430.42 -0.86 430.87 -0.86 C 432.38 -0.86 433.49 -3.89 436.01 -3.89 C 435.96 -2.81 434.69 -1.51 435.6 -0.43 C 432.79 -1.22 432.48 0.24 430.27 0.24 C 427.61 0.24 424.99 -1.63 424.99 -5.66 Z M 428.23 -6.1 C 428.23 -4.85 428.57 -3.38 429.12 -2.33 C 430.18 -4.56 432.86 -5.71 432.86 -8.52 C 432.86 -9.48 432.12 -10.92 430.8 -10.92 C 429.07 -10.92 428.23 -8.57 428.23 -6.1 Z M 448.49 -11.09 C 450.07 -11.09 450.96 -8.88 452.54 -8.78 C 452.5 -9.86 452.88 -10.92 453.7 -12 C 450 -10.9 450.74 -12.19 448.18 -12.19 C 446.28 -12.19 444 -11.04 444 -8.78 C 444 -5.28 450.72 -5.02 450.72 -2.45 C 450.72 -1.27 449.47 -0.91 448.7 -0.91 C 447.12 -0.91 446.21 -3.12 444.62 -3.22 C 444.67 -2.14 444.29 -1.08 443.47 0 C 447.17 -1.1 446.42 0.19 448.99 0.19 C 451.18 0.19 453.58 -1.01 453.58 -3.29 C 453.58 -6.46 446.83 -8.04 446.83 -9.7 C 446.83 -10.68 447.62 -11.09 448.49 -11.09 Z" stroke-linecap="round" />
</g>
</g>
</g>
</svg>